<svg t="1748353176299" class="icon" viewBox="0 0 1024 1024" version="1.1" xmlns="http://www.w3.org/2000/svg" p-id="8881" width="200" height="200"><path d="M733.792 160H864v130.208c40.544 64.192 56.832 140.256 56.832 221.792 0 229.76-179.072 403.072-408.832 403.072S109.184 741.76 109.184 512 282.24 103.168 512 103.168c81.536 0 157.6 16.32 221.792 56.832z" fill="#FFFFFF" p-id="8882"></path><path d="M882.368 410.208A31.968 31.968 0 0 0 896 384V351.744c20.608 49.344 32 103.456 32 160.256 0 229.728-186.24 416-415.968 416C282.24 928 96 741.728 96 512 96 282.304 282.24 96 512.032 96c56.8 0 110.912 11.392 160.224 32H576v5.312A386.56 386.56 0 0 0 512.064 128C299.904 128 128 299.84 128 511.936 128 724.096 299.936 896 512.064 896 724.064 896 896 724.064 896 511.936c0-35.2-4.736-69.344-13.632-101.76z" fill="#5D6D7E" p-id="8883"></path><path d="M265.472 619.04c43.456 7.456 93.696 2.816 93.696 2.816-46.912 83.84-35.68 152.448-25.76 184.32a373.664 373.664 0 0 1-119.04-99.648c-20.352-56.416-30.08-119.584-30.08-119.584s44.928 25.888 81.184 32.096z m185.984-188.576A32 32 0 0 0 480 448h331.52c-9.792 20.64-24.544 35.52-40.8 40.32-39.488 11.552-32.64 57.824-32.64 57.824 54.368 98.432-4.16 111.424-54.464 208.416-55.008 106.016-65.312-11.584-65.312-11.584 10.944-219.904-89.792-237.312-119.68-243.104-29.952-5.76-54.432-8.704-54.432-46.336 0-9.088 2.784-16.736 7.264-23.04zM448 305.696c-33.184 5.472-48 49.76-58.176 89.984-13.632 53.568-38.144 39.04-43.616-23.168-5.376-62.24-20.32-14.432-32.64 11.584-12.192 26.048-81.632 57.856-87.008 34.752-3.392-14.496 1.696-47.232 6.016-69.6C282.24 271.68 358.848 215.328 448 195.264v110.432z" fill="#ACB4C0" p-id="8884"></path><path d="M624.192 495.968m-40 0a40 40 0 1 0 80 0 40 40 0 1 0-80 0Z" fill="#5D6D7E" p-id="8885"></path><path d="M624 496l-1.632-80H512a32 32 0 0 1-32-32V160a32 32 0 0 1 32-32h352a32 32 0 0 1 32 32v224a32 32 0 0 1-32 32h-131.392L624 496zM722.08 384H864V160H512v224h141.728l0.992 49.6L722.08 384z" fill="#30AD98" p-id="8886"></path><path d="M544 352V320h224v32h-224z m0-32h224v32h-224V320z m0-32V256h288v32h-288z m0-32h288v32h-288V256z m0-32V192h288v32h-288z m0-32h288v32h-288V192z" fill="#808FA1" p-id="8887"></path></svg>