<svg t="1747915113928" class="icon" viewBox="0 0 1024 1024" version="1.1" xmlns="http://www.w3.org/2000/svg" p-id="6106" width="200" height="200"><path d="M512 0C229.376 0 0 229.376 0 512s229.376 512 512 512 512-229.376 512-512S794.624 0 512 0z m0 942.08c-237.568 0-430.08-192.512-430.08-430.08s192.512-430.08 430.08-430.08 430.08 192.512 430.08 430.08-192.512 430.08-430.08 430.08z" p-id="6107" fill="#8a8a8a"></path><path d="M737.28 532.48c0 22.528-18.432 40.96-40.96 40.96H491.52c-22.528 0-40.96-18.432-40.96-40.96V327.68c0-22.528 18.432-40.96 40.96-40.96 11.264 0 21.504 4.608 29.184 11.776 7.168 7.68 11.776 17.92 11.776 29.184v163.84h163.84c22.528 0 40.96 18.432 40.96 40.96z" p-id="6108" fill="#bfbfbf"></path></svg>